<?xml version="1.0" encoding="iso-8859-1"?>
<!-- Uploaded to: SVG Repo, www.svgrepo.com, Generator: SVG Repo Mixer Tools -->
<svg version="1.1" id="Layer_1" xmlns="http://www.w3.org/2000/svg" xmlns:xlink="http://www.w3.org/1999/xlink" 
	 viewBox="0 0 512 512" xml:space="preserve">
<circle style="fill:#FFD07D;" cx="256" cy="256" r="256"/>
<path style="fill:#415E72;" d="M49.176,340.8V79.072c0.08-4.616,3.808-8.336,8.424-8.408h396.8c4.608,0.08,8.32,3.792,8.4,8.4V340.8
	H49.176z"/>
<g>
	<path style="fill:#FFFFFF;" d="M462.824,340.8v33.6c-0.08,4.608-3.792,8.32-8.4,8.4H57.6c-4.608-0.08-8.32-3.792-8.4-8.4v-33.6
		H462.824z"/>
	<rect x="167.456" y="442.32" style="fill:#FFFFFF;" width="177.12" height="8.4"/>
</g>
<polygon style="fill:#AAC1CE;" points="314.816,442.296 197.184,442.296 205.584,382.84 306.416,382.84 "/>
<rect x="65.984" y="87.472" style="fill:#FFFFFF;" width="380" height="236.552"/>
<polygon style="fill:#8BA0AE;" points="306.416,382.84 205.584,382.84 200.896,416.024 307.92,393.52 "/>
<path style="fill:#32BEA6;" d="M333.984,212.112l-7.2-9.48c-5.28-6.912-51.536-68.648-51.536-99.408
	c0-36.896,23.032-60.744,58.712-60.744s58.712,23.848,58.712,60.744c0,30.712-46.248,92.448-51.488,99.408L333.984,212.112z"/>
<circle style="fill:#FFFFFF;" cx="333.944" cy="103.632" r="19.016"/>
<path style="fill:#E04F5F;" d="M167.336,235.04l-4.56-6.024c-3.352-4.392-32.728-43.6-32.728-63.136
	c0-23.44,14.632-38.584,37.288-38.584s37.288,15.144,37.288,38.584c0,19.504-29.376,58.72-32.704,63.136L167.336,235.04z"/>
<circle style="fill:#FFFFFF;" cx="167.312" cy="166.136" r="12.08"/>
<path style="fill:#415E72;" d="M256,285.152L252.096,280c-2.872-3.76-28-37.344-28-54.08c-1.456-16.76,10.952-31.52,27.712-32.976
	c1.392-0.12,2.792-0.144,4.192-0.072c16.8-0.888,31.128,12.016,32.016,28.808c0.072,1.416,0.048,2.824-0.072,4.24
	c0,16.704-25.16,50.296-28,54.08L256,285.152z"/>
<circle style="fill:#FFFFFF;" cx="255.976" cy="226.16" r="10.344"/>
</svg>