<?xml version="1.0" encoding="iso-8859-1"?>
<!-- Uploaded to: SVG Repo, www.svgrepo.com, Generator: SVG Repo Mixer Tools -->
<svg version="1.1" id="Layer_1" xmlns="http://www.w3.org/2000/svg" xmlns:xlink="http://www.w3.org/1999/xlink" 
	 viewBox="0 0 512 512" xml:space="preserve">
<path style="fill:#E54728;" d="M334.197,76.975h-83.513h-33.043c-26.325,0-47.742,21.418-47.742,47.742v41.708
	c0,4.999,4.051,9.051,9.051,9.051h33.03H372.9c5,0,9.051-4.053,9.051-9.051v-41.708C381.951,98.393,360.529,76.975,334.197,76.975z
	 M221.032,124.717c0-16.343,13.302-29.64,29.652-29.64h53.535c14.659,0,26.587,11.926,26.587,26.587v35.71H221.032V124.717z"/>
<polygon style="fill:#E6E6E6;" points="124.425,84.24 166.302,156.771 84.841,303.039 55.864,252.847 36.555,219.394 0,156.083 "/>
<path style="fill:#F7B239;" d="M198.597,274.799c4.055,6.022,6.42,13.287,6.42,21.095s-2.353,15.061-6.42,21.083v0.012
	l-31.462-21.095L198.597,274.799z"/>
<polygon style="fill:#E54728;" points="84.841,303.039 84.841,435.019 55.864,435.019 55.864,252.847 "/>
<path style="fill:#F95428;" d="M372.9,156.771h-33.043H211.981H178.95h-12.648h-52.485H84.841v146.268v131.98h28.976v-52.763
	c16.452,0,17.026,21.64,26.701,33.435c7.465,9.102,26.062,6.633,26.062,19.327h292.658c0-15.847,16.789-20.251,27.845-29.921
	c9.278-8.116,11.618-22.842,24.918-22.842V156.771L372.9,156.771L372.9,156.771z"/>
<g>
	<path style="fill:#C93A27;" d="M455.34,253.225c-1.119-2.263-3.425-3.697-5.951-3.697H226.39c-1.317,0-2.603,0.391-3.697,1.125
		l-59.257,39.729c-1.837,1.232-2.941,3.299-2.941,5.513c0,2.213,1.103,4.281,2.941,5.513l59.257,39.729
		c1.092,0.733,2.38,1.125,3.697,1.125h222.999c2.526,0,4.832-1.434,5.951-3.697c6.529-13.211,9.981-27.966,9.981-42.67
		C465.321,281.191,461.869,266.436,455.34,253.225z M227.983,295.895c0,10.123-1.64,20.031-4.833,29.565L207.4,314.9
		c2.796-5.895,4.255-12.358,4.255-19.005c0-6.639-1.459-13.101-4.255-19.005l15.75-10.56
		C226.343,275.864,227.983,285.772,227.983,295.895z M241.046,302.533h165.032c-0.739,9.102-2.986,18.088-6.621,26.454H235.986
		C238.797,320.403,240.49,311.555,241.046,302.533z M406.078,289.257H241.046c-0.556-9.022-2.25-17.871-5.06-26.454h163.472
		C403.093,271.169,405.34,280.155,406.078,289.257z M196.192,284.405c1.436,3.627,2.188,7.511,2.188,11.49
		c0,3.985-0.752,7.87-2.188,11.49l-17.138-11.49L196.192,284.405z M445.152,328.986h-31.408c3.863-10.573,5.883-21.839,5.883-33.091
		s-2.021-22.518-5.883-33.091h31.408c4.518,10.414,6.892,21.771,6.892,33.091S449.672,318.573,445.152,328.986z"/>
	<rect x="79.41" y="156.777" style="fill:#C93A27;" width="10.862" height="278.248"/>
</g>
<g>
	<path style="fill:#F7B239;" d="M512,382.256v52.763h-52.763C459.237,405.874,482.855,382.256,512,382.256z"/>
	<path style="fill:#F7B239;" d="M166.58,435.019h-52.763v-52.763C142.962,382.256,166.58,405.874,166.58,435.019z"/>
</g>
<polygon style="fill:#E54728;" points="113.817,382.256 113.817,435.019 84.841,435.019 84.841,303.039 84.841,156.771 
	113.817,156.771 "/>
</svg>